:FULLY-SPECIFIED
:FORCE-ALL-JOINTS-BE-3DOF
:DEGREES
577
root 7.09409 15.7809 -3.39789 -173.006 69.1832 -177.441
lfemur -21.4546 3.44916 -16.7664
ltibia 57.3475 -0 0
lfoot -34.3561 1.51393 0.372799
ltoes -3.86115 0 0
rfemur -45.2577 -7.57076 8.47958
rtibia 53.6412 -0 0
rfoot 5.46927 3.878 0.134271
rtoes -26.4695 0 0
lowerback 7.20536 -0.840212 -3.41584
upperback 3.45243 -1.11067 3.35942
thorax -0.304309 -0.539592 5.50258
lowerneck -3.59465 -14.1719 -4.53218
upperneck 10.1853 -19.3864 7.10328
head 4.77114 -9.32471 1.69988
lclavicle -4.32357e-015 -2.62396e-014 0
lhumerus -35.2592 -17.158 90.8461
lradius 51.9111 -0 0
lwrist 26.4649 0 0
lhand -23.1343 -3.33469 0.0376388
lfingers 7.12502 -0 0
lthumb 3.31364 26.6174 0.0380064
rclavicle -4.32357e-015 -2.62396e-014 0
rhumerus 23.1432 18.5924 -76.4503
rradius 136.109 -0 0
rwrist -42.9665 0 0
rhand -26.3887 -19.4526 -0.00834393
rfingers 7.12502 -0 0
rthumb 0.170379 -49.4335 -0.00799213
578
root 7.03513 15.8275 -3.39798 -172.29 70.4697 -176.785
lfemur -21.0316 3.6615 -16.9321
ltibia 56.1869 -0 0
lfoot -34.0612 2.46836 0.36372
ltoes -3.63413 0 0
rfemur -45.2885 -7.97952 9.07811
rtibia 53.8544 -0 0
rfoot 5.95531 4.1847 0.13448
rtoes -25.808 0 0
lowerback 6.99333 -0.841419 -3.5991
upperback 3.34538 -1.13409 3.26234
thorax -0.293243 -0.556708 5.50248
lowerneck -3.73431 -14.1215 -4.50642
upperneck 10.366 -19.3289 7.06781
head 4.83973 -9.28837 1.67326
lclavicle -4.32357e-015 -2.62396e-014 0
lhumerus -34.4304 -17.9107 90.245
lradius 51.9484 -0 0
lwrist 26.3152 0 0
lhand -22.8639 -3.23927 0.035631
lfingers 7.12502 -0 0
lthumb 3.57477 26.7087 0.0360759
rclavicle -4.32357e-015 -2.62396e-014 0
rhumerus 23.4415 18.5496 -76.1366
rradius 136.14 -0 0
rwrist -42.9729 0 0
rhand -26.3027 -19.3588 -0.0100254
rfingers 7.12502 -0 0
rthumb 0.253399 -49.3398 -0.00961169
579
root 6.97616 15.8741 -3.39807 -171.481 71.7773 -176.038
lfemur -20.6152 3.88351 -17.1004
ltibia 55.0395 -0 0
lfoot -33.7738 3.4212 0.34933
ltoes -3.38665 0 0
rfemur -45.3264 -8.38552 9.67049
rtibia 54.0739 -0 0
rfoot 6.43459 4.50046 0.132392
rtoes -25.1586 0 0
lowerback 6.78299 -0.845028 -3.77702
upperback 3.23761 -1.15934 3.16706
thorax -0.283778 -0.574481 5.50123
lowerneck -3.8764 -14.0679 -4.47755
upperneck 10.5475 -19.2667 7.02877
head 4.90841 -9.24979 1.6455
lclavicle -4.32357e-015 -2.62396e-014 0
lhumerus -33.5989 -18.6639 89.6561
lradius 51.9951 -0 0
lwrist 26.1626 0 0
lhand -22.5897 -3.14573 0.0332518
lfingers 7.12502 -0 0
lthumb 3.83959 26.7979 0.0337699
rclavicle -4.32357e-015 -2.62396e-014 0
rhumerus 23.7256 18.4907 -75.825
rradius 136.149 -0 0
rwrist -42.992 0 0
rhand -26.2214 -19.274 -0.0115789
rfingers 7.12502 -0 0
rthumb 0.331926 -49.2551 -0.0111086
580
root 6.9172 15.9207 -3.39816 -170.558 73.1036 -175.18
lfemur -20.2075 4.11595 -17.2702
ltibia 53.9103 -0 0
lfoot -33.4963 4.36777 0.329921
ltoes -3.11702 0 0
rfemur -45.3714 -8.78746 10.2546
rtibia 54.3002 -0 0
rfoot 6.90362 4.82428 0.128004
rtoes -24.5244 0 0
lowerback 6.57501 -0.851384 -3.94862
upperback 3.12939 -1.18685 3.07389
thorax -0.276 -0.593089 5.49865
lowerneck -4.02039 -14.0106 -4.44511
upperneck 10.729 -19.1993 6.98605
head 4.97675 -9.20877 1.61663
lclavicle -4.32357e-015 -2.62396e-014 0
lhumerus -32.7691 -19.4148 89.0831
lradius 52.0513 -0 0
lwrist 26.0081 0 0
lhand -22.3128 -3.05436 0.030546
lfingers 7.12502 -0 0
lthumb 4.1069 26.8846 0.0311307
rclavicle -4.32357e-015 -2.62396e-014 0
rhumerus 23.993 18.4151 -75.5171
rradius 136.131 -0 0
rwrist -43.0246 0 0
rhand -26.1458 -19.1992 -0.0129329
rfingers 7.12502 -0 0
rthumb 0.404978 -49.1804 -0.0124138
581
root 6.85823 15.9673 -3.39825 -169.493 74.446 -174.181
lfemur -19.81 4.35955 -17.4407
ltibia 52.8045 -0 0
lfoot -33.2312 5.30339 0.305906
ltoes -2.82359 0 0
rfemur -45.4233 -9.18405 10.8284
rtibia 54.5338 -0 0
rfoot 7.35895 5.15518 0.121373
rtoes -23.9084 0 0
lowerback 6.37008 -0.860821 -4.11296
upperback 3.02098 -1.21701 2.98313
thorax -0.269994 -0.61271 5.49458
lowerneck -4.16573 -13.9493 -4.40866
upperneck 10.9094 -19.1262 6.93957
head 5.0443 -9.16512 1.58673
lclavicle -4.32357e-015 -2.62396e-014 0
lhumerus -31.9457 -20.1606 88.5299
lradius 52.1172 -0 0
lwrist 25.8526 0 0
lhand -22.0347 -2.96544 0.0275655
lfingers 7.12502 -0 0
lthumb 4.37551 26.9686 0.0282069
rclavicle -4.32357e-015 -2.62396e-014 0
rhumerus 24.2416 18.3225 -75.2146
rradius 136.083 -0 0
rwrist -43.0714 0 0
rhand -26.0768 -19.1356 -0.0140128
rfingers 7.12502 -0 0
rthumb 0.47157 -49.1168 -0.0134557
582
root 6.79927 16.0139 -3.39834 -168.248 75.8014 -173.005
lfemur -19.4247 4.61504 -17.611
ltibia 51.7271 -0 0
lfoot -32.9809 6.2234 0.277817
ltoes -2.5047 0 0
rfemur -45.4823 -9.57403 11.3896
rtibia 54.7754 -0 0
rfoot 7.79711 5.49217 0.112617
rtoes -23.3137 0 0
lowerback 6.16889 -0.873664 -4.26907
upperback 2.91264 -1.25024 2.89509
thorax -0.265847 -0.633522 5.48882
lowerneck -4.31188 -13.8838 -4.36776
upperneck 11.0877 -19.047 6.88924
head 5.11063 -9.11865 1.55584
lclavicle -4.32357e-015 -2.62396e-014 0
lhumerus -31.1334 -20.8989 88.0009
lradius 52.1928 -0 0
lwrist 25.6973 0 0
lhand -21.7564 -2.87924 0.0243687
lfingers 7.12502 -0 0
lthumb 4.64422 27.0495 0.0250537
rclavicle -4.32357e-015 -2.62396e-014 0
rhumerus 24.4689 18.2122 -74.9187
rradius 136.004 -0 0
rwrist -43.1332 0 0
rhand -26.0156 -19.0842 -0.0147427
rfingers 7.12502 -0 0
rthumb 0.530719 -49.0654 -0.014161
583
root 6.74031 16.0604 -3.39843 -166.768 77.1667 -171.595
lfemur -19.0534 4.88309 -17.7802
ltibia 50.6831 -0 0
lfoot -32.7479 7.12312 0.246294
ltoes -2.15867 0 0
rfemur -45.5479 -9.95612 11.9361
rtibia 55.0256 -0 0
rfoot 8.21463 5.83428 0.101915
rtoes -22.7433 0 0
lowerback 5.97211 -0.890231 -4.41599
upperback 2.80464 -1.28693 2.81009
thorax -0.263643 -0.655703 5.48121
lowerneck -4.4583 -13.8136 -4.32198
upperneck 11.2629 -18.9611 6.83496
head 5.17529 -9.06916 1.52401
lclavicle -4.32357e-015 -2.62396e-014 0
lhumerus -30.3374 -21.6273 87.5005
lradius 52.2781 -0 0
lwrist 25.5431 0 0
lhand -21.4792 -2.79604 0.0210209
lfingers 7.12502 -0 0
lthumb 4.91183 27.1272 0.0217322
rclavicle -4.32357e-015 -2.62396e-014 0
rhumerus 24.6728 18.0838 -74.6312
rradius 135.889 -0 0
rwrist -43.2108 0 0
rhand -25.963 -19.0463 -0.0150472
rfingers 7.12502 -0 0
rthumb 0.581442 -49.0274 -0.0144572
